<svg xmlns="http://www.w3.org/2000/svg" version="1.1" overflow="scroll">
<line x1="1568.675135" y1="620.000000" x2="1135.662433" y2="370.000000" stroke="rgb(4199120,4199120,4199120)" stroke-width="1" />
<line x1="1135.662433" y1="370.000000" x2="1135.662433" y2="870.000000" stroke="rgb(4199120,4199120,4199120)" stroke-width="1" />
<line x1="1135.662433" y1="870.000000" x2="1568.675135" y2="620.000000" stroke="rgb(4199120,4199120,4199120)" stroke-width="1" />
<line x1="1424.337567" y1="870.000000" x2="1424.337567" y2="703.333333" stroke="rgb(0,0,0)" stroke-width="1" />
<line x1="1424.337567" y1="703.333333" x2="1280.000000" y2="786.666667" stroke="rgb(255,255,255)" stroke-width="1" />
<line x1="1280.000000" y1="786.666667" x2="1424.337567" y2="870.000000" stroke="rgb(0,0,0)" stroke-width="1" />
<line x1="1328.112522" y1="870.000000" x2="1376.225045" y2="842.222222" stroke="rgb(0,0,0)" stroke-width="1" />
<line x1="1376.225045" y1="842.222222" x2="1328.112522" y2="814.444444" stroke="rgb(255,255,255)" stroke-width="1" />
<line x1="1328.112522" y1="814.444444" x2="1328.112522" y2="870.000000" stroke="rgb(0,0,0)" stroke-width="1" />
<line x1="1312.075015" y1="842.222222" x2="1328.112522" y2="851.481481" stroke="rgb(0,0,0)" stroke-width="1" />
<line x1="1328.112522" y1="851.481481" x2="1328.112522" y2="832.962963" stroke="rgb(255,255,255)" stroke-width="1" />
<line x1="1328.112522" y1="832.962963" x2="1312.075015" y2="842.222222" stroke="rgb(0,0,0)" stroke-width="1" />
<line x1="1317.420851" y1="832.962963" x2="1317.420851" y2="839.135802" stroke="rgb(0,0,0)" stroke-width="1" />
<line x1="1317.420851" y1="839.135802" x2="1322.766687" y2="836.049383" stroke="rgb(255,255,255)" stroke-width="1" />
<line x1="1322.766687" y1="836.049383" x2="1317.420851" y2="832.962963" stroke="rgb(0,0,0)" stroke-width="1" />
<line x1="1320.984741" y1="832.962963" x2="1319.202796" y2="833.991770" stroke="rgb(0,0,0)" stroke-width="1" />
<line x1="1319.202796" y1="833.991770" x2="1320.984741" y2="835.020576" stroke="rgb(255,255,255)" stroke-width="1" />
<line x1="1320.984741" y1="835.020576" x2="1320.984741" y2="832.962963" stroke="rgb(0,0,0)" stroke-width="1" />
<line x1="1315.638906" y1="836.049383" x2="1317.420851" y2="837.078189" stroke="rgb(0,0,0)" stroke-width="1" />
<line x1="1317.420851" y1="837.078189" x2="1317.420851" y2="835.020576" stroke="rgb(255,255,255)" stroke-width="1" />
<line x1="1317.420851" y1="835.020576" x2="1315.638906" y2="836.049383" stroke="rgb(0,0,0)" stroke-width="1" />
<line x1="1317.420851" y1="851.481481" x2="1322.766687" y2="848.395062" stroke="rgb(0,0,0)" stroke-width="1" />
<line x1="1322.766687" y1="848.395062" x2="1317.420851" y2="845.308642" stroke="rgb(255,255,255)" stroke-width="1" />
<line x1="1317.420851" y1="845.308642" x2="1317.420851" y2="851.481481" stroke="rgb(0,0,0)" stroke-width="1" />
<line x1="1315.638906" y1="848.395062" x2="1317.420851" y2="849.423868" stroke="rgb(0,0,0)" stroke-width="1" />
<line x1="1317.420851" y1="849.423868" x2="1317.420851" y2="847.366255" stroke="rgb(255,255,255)" stroke-width="1" />
<line x1="1317.420851" y1="847.366255" x2="1315.638906" y2="848.395062" stroke="rgb(0,0,0)" stroke-width="1" />
<line x1="1320.984741" y1="851.481481" x2="1320.984741" y2="849.423868" stroke="rgb(0,0,0)" stroke-width="1" />
<line x1="1320.984741" y1="849.423868" x2="1319.202796" y2="850.452675" stroke="rgb(255,255,255)" stroke-width="1" />
<line x1="1319.202796" y1="850.452675" x2="1320.984741" y2="851.481481" stroke="rgb(0,0,0)" stroke-width="1" />
<line x1="1360.187537" y1="870.000000" x2="1360.187537" y2="851.481481" stroke="rgb(0,0,0)" stroke-width="1" />
<line x1="1360.187537" y1="851.481481" x2="1344.150030" y2="860.740741" stroke="rgb(255,255,255)" stroke-width="1" />
<line x1="1344.150030" y1="860.740741" x2="1360.187537" y2="870.000000" stroke="rgb(0,0,0)" stroke-width="1" />
<line x1="1349.495866" y1="870.000000" x2="1354.841702" y2="866.913580" stroke="rgb(0,0,0)" stroke-width="1" />
<line x1="1354.841702" y1="866.913580" x2="1349.495866" y2="863.827160" stroke="rgb(255,255,255)" stroke-width="1" />
<line x1="1349.495866" y1="863.827160" x2="1349.495866" y2="870.000000" stroke="rgb(0,0,0)" stroke-width="1" />
<line x1="1347.713920" y1="866.913580" x2="1349.495866" y2="867.942387" stroke="rgb(0,0,0)" stroke-width="1" />
<line x1="1349.495866" y1="867.942387" x2="1349.495866" y2="865.884774" stroke="rgb(255,255,255)" stroke-width="1" />
<line x1="1349.495866" y1="865.884774" x2="1347.713920" y2="866.913580" stroke="rgb(0,0,0)" stroke-width="1" />
<line x1="1353.059756" y1="870.000000" x2="1353.059756" y2="867.942387" stroke="rgb(0,0,0)" stroke-width="1" />
<line x1="1353.059756" y1="867.942387" x2="1351.277811" y2="868.971193" stroke="rgb(255,255,255)" stroke-width="1" />
<line x1="1351.277811" y1="868.971193" x2="1353.059756" y2="870.000000" stroke="rgb(0,0,0)" stroke-width="1" />
<line x1="1365.533373" y1="860.740741" x2="1360.187537" y2="857.654321" stroke="rgb(0,0,0)" stroke-width="1" />
<line x1="1360.187537" y1="857.654321" x2="1360.187537" y2="863.827160" stroke="rgb(255,255,255)" stroke-width="1" />
<line x1="1360.187537" y1="863.827160" x2="1365.533373" y2="860.740741" stroke="rgb(0,0,0)" stroke-width="1" />
<line x1="1363.751428" y1="863.827160" x2="1363.751428" y2="861.769547" stroke="rgb(0,0,0)" stroke-width="1" />
<line x1="1363.751428" y1="861.769547" x2="1361.969483" y2="862.798354" stroke="rgb(255,255,255)" stroke-width="1" />
<line x1="1361.969483" y1="862.798354" x2="1363.751428" y2="863.827160" stroke="rgb(0,0,0)" stroke-width="1" />
<line x1="1363.751428" y1="857.654321" x2="1361.969483" y2="858.683128" stroke="rgb(0,0,0)" stroke-width="1" />
<line x1="1361.969483" y1="858.683128" x2="1363.751428" y2="859.711934" stroke="rgb(255,255,255)" stroke-width="1" />
<line x1="1363.751428" y1="859.711934" x2="1363.751428" y2="857.654321" stroke="rgb(0,0,0)" stroke-width="1" />
<line x1="1472.450090" y1="786.666667" x2="1424.337567" y2="758.888889" stroke="rgb(0,0,0)" stroke-width="1" />
<line x1="1424.337567" y1="758.888889" x2="1424.337567" y2="814.444444" stroke="rgb(255,255,255)" stroke-width="1" />
<line x1="1424.337567" y1="814.444444" x2="1472.450090" y2="786.666667" stroke="rgb(0,0,0)" stroke-width="1" />
<line x1="1456.412582" y1="814.444444" x2="1456.412582" y2="795.925926" stroke="rgb(0,0,0)" stroke-width="1" />
<line x1="1456.412582" y1="795.925926" x2="1440.375075" y2="805.185185" stroke="rgb(255,255,255)" stroke-width="1" />
<line x1="1440.375075" y1="805.185185" x2="1456.412582" y2="814.444444" stroke="rgb(0,0,0)" stroke-width="1" />
<line x1="1445.720911" y1="814.444444" x2="1451.066746" y2="811.358025" stroke="rgb(0,0,0)" stroke-width="1" />
<line x1="1451.066746" y1="811.358025" x2="1445.720911" y2="808.271605" stroke="rgb(255,255,255)" stroke-width="1" />
<line x1="1445.720911" y1="808.271605" x2="1445.720911" y2="814.444444" stroke="rgb(0,0,0)" stroke-width="1" />
<line x1="1443.938965" y1="811.358025" x2="1445.720911" y2="812.386831" stroke="rgb(0,0,0)" stroke-width="1" />
<line x1="1445.720911" y1="812.386831" x2="1445.720911" y2="810.329218" stroke="rgb(255,255,255)" stroke-width="1" />
<line x1="1445.720911" y1="810.329218" x2="1443.938965" y2="811.358025" stroke="rgb(0,0,0)" stroke-width="1" />
<line x1="1449.284801" y1="814.444444" x2="1449.284801" y2="812.386831" stroke="rgb(0,0,0)" stroke-width="1" />
<line x1="1449.284801" y1="812.386831" x2="1447.502856" y2="813.415638" stroke="rgb(255,255,255)" stroke-width="1" />
<line x1="1447.502856" y1="813.415638" x2="1449.284801" y2="814.444444" stroke="rgb(0,0,0)" stroke-width="1" />
<line x1="1461.758418" y1="805.185185" x2="1456.412582" y2="802.098765" stroke="rgb(0,0,0)" stroke-width="1" />
<line x1="1456.412582" y1="802.098765" x2="1456.412582" y2="808.271605" stroke="rgb(255,255,255)" stroke-width="1" />
<line x1="1456.412582" y1="808.271605" x2="1461.758418" y2="805.185185" stroke="rgb(0,0,0)" stroke-width="1" />
<line x1="1459.976473" y1="808.271605" x2="1459.976473" y2="806.213992" stroke="rgb(0,0,0)" stroke-width="1" />
<line x1="1459.976473" y1="806.213992" x2="1458.194528" y2="807.242798" stroke="rgb(255,255,255)" stroke-width="1" />
<line x1="1458.194528" y1="807.242798" x2="1459.976473" y2="808.271605" stroke="rgb(0,0,0)" stroke-width="1" />
<line x1="1459.976473" y1="802.098765" x2="1458.194528" y2="803.127572" stroke="rgb(0,0,0)" stroke-width="1" />
<line x1="1458.194528" y1="803.127572" x2="1459.976473" y2="804.156379" stroke="rgb(255,255,255)" stroke-width="1" />
<line x1="1459.976473" y1="804.156379" x2="1459.976473" y2="802.098765" stroke="rgb(0,0,0)" stroke-width="1" />
<line x1="1456.412582" y1="758.888889" x2="1440.375075" y2="768.148148" stroke="rgb(0,0,0)" stroke-width="1" />
<line x1="1440.375075" y1="768.148148" x2="1456.412582" y2="777.407407" stroke="rgb(255,255,255)" stroke-width="1" />
<line x1="1456.412582" y1="777.407407" x2="1456.412582" y2="758.888889" stroke="rgb(0,0,0)" stroke-width="1" />
<line x1="1461.758418" y1="768.148148" x2="1456.412582" y2="765.061728" stroke="rgb(0,0,0)" stroke-width="1" />
<line x1="1456.412582" y1="765.061728" x2="1456.412582" y2="771.234568" stroke="rgb(255,255,255)" stroke-width="1" />
<line x1="1456.412582" y1="771.234568" x2="1461.758418" y2="768.148148" stroke="rgb(0,0,0)" stroke-width="1" />
<line x1="1459.976473" y1="771.234568" x2="1459.976473" y2="769.176955" stroke="rgb(0,0,0)" stroke-width="1" />
<line x1="1459.976473" y1="769.176955" x2="1458.194528" y2="770.205761" stroke="rgb(255,255,255)" stroke-width="1" />
<line x1="1458.194528" y1="770.205761" x2="1459.976473" y2="771.234568" stroke="rgb(0,0,0)" stroke-width="1" />
<line x1="1459.976473" y1="765.061728" x2="1458.194528" y2="766.090535" stroke="rgb(0,0,0)" stroke-width="1" />
<line x1="1458.194528" y1="766.090535" x2="1459.976473" y2="767.119342" stroke="rgb(255,255,255)" stroke-width="1" />
<line x1="1459.976473" y1="767.119342" x2="1459.976473" y2="765.061728" stroke="rgb(0,0,0)" stroke-width="1" />
<line x1="1445.720911" y1="758.888889" x2="1445.720911" y2="765.061728" stroke="rgb(0,0,0)" stroke-width="1" />
<line x1="1445.720911" y1="765.061728" x2="1451.066746" y2="761.975309" stroke="rgb(255,255,255)" stroke-width="1" />
<line x1="1451.066746" y1="761.975309" x2="1445.720911" y2="758.888889" stroke="rgb(0,0,0)" stroke-width="1" />
<line x1="1449.284801" y1="758.888889" x2="1447.502856" y2="759.917695" stroke="rgb(0,0,0)" stroke-width="1" />
<line x1="1447.502856" y1="759.917695" x2="1449.284801" y2="760.946502" stroke="rgb(255,255,255)" stroke-width="1" />
<line x1="1449.284801" y1="760.946502" x2="1449.284801" y2="758.888889" stroke="rgb(0,0,0)" stroke-width="1" />
<line x1="1443.938965" y1="761.975309" x2="1445.720911" y2="763.004115" stroke="rgb(0,0,0)" stroke-width="1" />
<line x1="1445.720911" y1="763.004115" x2="1445.720911" y2="760.946502" stroke="rgb(255,255,255)" stroke-width="1" />
<line x1="1445.720911" y1="760.946502" x2="1443.938965" y2="761.975309" stroke="rgb(0,0,0)" stroke-width="1" />
<line x1="1424.337567" y1="370.000000" x2="1280.000000" y2="453.333333" stroke="rgb(0,0,0)" stroke-width="1" />
<line x1="1280.000000" y1="453.333333" x2="1424.337567" y2="536.666667" stroke="rgb(255,255,255)" stroke-width="1" />
<line x1="1424.337567" y1="536.666667" x2="1424.337567" y2="370.000000" stroke="rgb(0,0,0)" stroke-width="1" />
<line x1="1472.450090" y1="453.333333" x2="1424.337567" y2="425.555556" stroke="rgb(0,0,0)" stroke-width="1" />
<line x1="1424.337567" y1="425.555556" x2="1424.337567" y2="481.111111" stroke="rgb(255,255,255)" stroke-width="1" />
<line x1="1424.337567" y1="481.111111" x2="1472.450090" y2="453.333333" stroke="rgb(0,0,0)" stroke-width="1" />
<line x1="1456.412582" y1="481.111111" x2="1456.412582" y2="462.592593" stroke="rgb(0,0,0)" stroke-width="1" />
<line x1="1456.412582" y1="462.592593" x2="1440.375075" y2="471.851852" stroke="rgb(255,255,255)" stroke-width="1" />
<line x1="1440.375075" y1="471.851852" x2="1456.412582" y2="481.111111" stroke="rgb(0,0,0)" stroke-width="1" />
<line x1="1445.720911" y1="481.111111" x2="1451.066746" y2="478.024691" stroke="rgb(0,0,0)" stroke-width="1" />
<line x1="1451.066746" y1="478.024691" x2="1445.720911" y2="474.938272" stroke="rgb(255,255,255)" stroke-width="1" />
<line x1="1445.720911" y1="474.938272" x2="1445.720911" y2="481.111111" stroke="rgb(0,0,0)" stroke-width="1" />
<line x1="1443.938965" y1="478.024691" x2="1445.720911" y2="479.053498" stroke="rgb(0,0,0)" stroke-width="1" />
<line x1="1445.720911" y1="479.053498" x2="1445.720911" y2="476.995885" stroke="rgb(255,255,255)" stroke-width="1" />
<line x1="1445.720911" y1="476.995885" x2="1443.938965" y2="478.024691" stroke="rgb(0,0,0)" stroke-width="1" />
<line x1="1449.284801" y1="481.111111" x2="1449.284801" y2="479.053498" stroke="rgb(0,0,0)" stroke-width="1" />
<line x1="1449.284801" y1="479.053498" x2="1447.502856" y2="480.082305" stroke="rgb(255,255,255)" stroke-width="1" />
<line x1="1447.502856" y1="480.082305" x2="1449.284801" y2="481.111111" stroke="rgb(0,0,0)" stroke-width="1" />
<line x1="1461.758418" y1="471.851852" x2="1456.412582" y2="468.765432" stroke="rgb(0,0,0)" stroke-width="1" />
<line x1="1456.412582" y1="468.765432" x2="1456.412582" y2="474.938272" stroke="rgb(255,255,255)" stroke-width="1" />
<line x1="1456.412582" y1="474.938272" x2="1461.758418" y2="471.851852" stroke="rgb(0,0,0)" stroke-width="1" />
<line x1="1459.976473" y1="474.938272" x2="1459.976473" y2="472.880658" stroke="rgb(0,0,0)" stroke-width="1" />
<line x1="1459.976473" y1="472.880658" x2="1458.194528" y2="473.909465" stroke="rgb(255,255,255)" stroke-width="1" />
<line x1="1458.194528" y1="473.909465" x2="1459.976473" y2="474.938272" stroke="rgb(0,0,0)" stroke-width="1" />
<line x1="1459.976473" y1="468.765432" x2="1458.194528" y2="469.794239" stroke="rgb(0,0,0)" stroke-width="1" />
<line x1="1458.194528" y1="469.794239" x2="1459.976473" y2="470.823045" stroke="rgb(255,255,255)" stroke-width="1" />
<line x1="1459.976473" y1="470.823045" x2="1459.976473" y2="468.765432" stroke="rgb(0,0,0)" stroke-width="1" />
<line x1="1456.412582" y1="425.555556" x2="1440.375075" y2="434.814815" stroke="rgb(0,0,0)" stroke-width="1" />
<line x1="1440.375075" y1="434.814815" x2="1456.412582" y2="444.074074" stroke="rgb(255,255,255)" stroke-width="1" />
<line x1="1456.412582" y1="444.074074" x2="1456.412582" y2="425.555556" stroke="rgb(0,0,0)" stroke-width="1" />
<line x1="1461.758418" y1="434.814815" x2="1456.412582" y2="431.728395" stroke="rgb(0,0,0)" stroke-width="1" />
<line x1="1456.412582" y1="431.728395" x2="1456.412582" y2="437.901235" stroke="rgb(255,255,255)" stroke-width="1" />
<line x1="1456.412582" y1="437.901235" x2="1461.758418" y2="434.814815" stroke="rgb(0,0,0)" stroke-width="1" />
<line x1="1459.976473" y1="437.901235" x2="1459.976473" y2="435.843621" stroke="rgb(0,0,0)" stroke-width="1" />
<line x1="1459.976473" y1="435.843621" x2="1458.194528" y2="436.872428" stroke="rgb(255,255,255)" stroke-width="1" />
<line x1="1458.194528" y1="436.872428" x2="1459.976473" y2="437.901235" stroke="rgb(0,0,0)" stroke-width="1" />
<line x1="1459.976473" y1="431.728395" x2="1458.194528" y2="432.757202" stroke="rgb(0,0,0)" stroke-width="1" />
<line x1="1458.194528" y1="432.757202" x2="1459.976473" y2="433.786008" stroke="rgb(255,255,255)" stroke-width="1" />
<line x1="1459.976473" y1="433.786008" x2="1459.976473" y2="431.728395" stroke="rgb(0,0,0)" stroke-width="1" />
<line x1="1445.720911" y1="425.555556" x2="1445.720911" y2="431.728395" stroke="rgb(0,0,0)" stroke-width="1" />
<line x1="1445.720911" y1="431.728395" x2="1451.066746" y2="428.641975" stroke="rgb(255,255,255)" stroke-width="1" />
<line x1="1451.066746" y1="428.641975" x2="1445.720911" y2="425.555556" stroke="rgb(0,0,0)" stroke-width="1" />
<line x1="1449.284801" y1="425.555556" x2="1447.502856" y2="426.584362" stroke="rgb(0,0,0)" stroke-width="1" />
<line x1="1447.502856" y1="426.584362" x2="1449.284801" y2="427.613169" stroke="rgb(255,255,255)" stroke-width="1" />
<line x1="1449.284801" y1="427.613169" x2="1449.284801" y2="425.555556" stroke="rgb(0,0,0)" stroke-width="1" />
<line x1="1443.938965" y1="428.641975" x2="1445.720911" y2="429.670782" stroke="rgb(0,0,0)" stroke-width="1" />
<line x1="1445.720911" y1="429.670782" x2="1445.720911" y2="427.613169" stroke="rgb(255,255,255)" stroke-width="1" />
<line x1="1445.720911" y1="427.613169" x2="1443.938965" y2="428.641975" stroke="rgb(0,0,0)" stroke-width="1" />
<line x1="1328.112522" y1="370.000000" x2="1328.112522" y2="425.555556" stroke="rgb(0,0,0)" stroke-width="1" />
<line x1="1328.112522" y1="425.555556" x2="1376.225045" y2="397.777778" stroke="rgb(255,255,255)" stroke-width="1" />
<line x1="1376.225045" y1="397.777778" x2="1328.112522" y2="370.000000" stroke="rgb(0,0,0)" stroke-width="1" />
<line x1="1360.187537" y1="370.000000" x2="1344.150030" y2="379.259259" stroke="rgb(0,0,0)" stroke-width="1" />
<line x1="1344.150030" y1="379.259259" x2="1360.187537" y2="388.518519" stroke="rgb(255,255,255)" stroke-width="1" />
<line x1="1360.187537" y1="388.518519" x2="1360.187537" y2="370.000000" stroke="rgb(0,0,0)" stroke-width="1" />
<line x1="1365.533373" y1="379.259259" x2="1360.187537" y2="376.172840" stroke="rgb(0,0,0)" stroke-width="1" />
<line x1="1360.187537" y1="376.172840" x2="1360.187537" y2="382.345679" stroke="rgb(255,255,255)" stroke-width="1" />
<line x1="1360.187537" y1="382.345679" x2="1365.533373" y2="379.259259" stroke="rgb(0,0,0)" stroke-width="1" />
<line x1="1363.751428" y1="382.345679" x2="1363.751428" y2="380.288066" stroke="rgb(0,0,0)" stroke-width="1" />
<line x1="1363.751428" y1="380.288066" x2="1361.969483" y2="381.316872" stroke="rgb(255,255,255)" stroke-width="1" />
<line x1="1361.969483" y1="381.316872" x2="1363.751428" y2="382.345679" stroke="rgb(0,0,0)" stroke-width="1" />
<line x1="1363.751428" y1="376.172840" x2="1361.969483" y2="377.201646" stroke="rgb(0,0,0)" stroke-width="1" />
<line x1="1361.969483" y1="377.201646" x2="1363.751428" y2="378.230453" stroke="rgb(255,255,255)" stroke-width="1" />
<line x1="1363.751428" y1="378.230453" x2="1363.751428" y2="376.172840" stroke="rgb(0,0,0)" stroke-width="1" />
<line x1="1349.495866" y1="370.000000" x2="1349.495866" y2="376.172840" stroke="rgb(0,0,0)" stroke-width="1" />
<line x1="1349.495866" y1="376.172840" x2="1354.841702" y2="373.086420" stroke="rgb(255,255,255)" stroke-width="1" />
<line x1="1354.841702" y1="373.086420" x2="1349.495866" y2="370.000000" stroke="rgb(0,0,0)" stroke-width="1" />
<line x1="1353.059756" y1="370.000000" x2="1351.277811" y2="371.028807" stroke="rgb(0,0,0)" stroke-width="1" />
<line x1="1351.277811" y1="371.028807" x2="1353.059756" y2="372.057613" stroke="rgb(255,255,255)" stroke-width="1" />
<line x1="1353.059756" y1="372.057613" x2="1353.059756" y2="370.000000" stroke="rgb(0,0,0)" stroke-width="1" />
<line x1="1347.713920" y1="373.086420" x2="1349.495866" y2="374.115226" stroke="rgb(0,0,0)" stroke-width="1" />
<line x1="1349.495866" y1="374.115226" x2="1349.495866" y2="372.057613" stroke="rgb(255,255,255)" stroke-width="1" />
<line x1="1349.495866" y1="372.057613" x2="1347.713920" y2="373.086420" stroke="rgb(0,0,0)" stroke-width="1" />
<line x1="1312.075015" y1="397.777778" x2="1328.112522" y2="407.037037" stroke="rgb(0,0,0)" stroke-width="1" />
<line x1="1328.112522" y1="407.037037" x2="1328.112522" y2="388.518519" stroke="rgb(255,255,255)" stroke-width="1" />
<line x1="1328.112522" y1="388.518519" x2="1312.075015" y2="397.777778" stroke="rgb(0,0,0)" stroke-width="1" />
<line x1="1317.420851" y1="388.518519" x2="1317.420851" y2="394.691358" stroke="rgb(0,0,0)" stroke-width="1" />
<line x1="1317.420851" y1="394.691358" x2="1322.766687" y2="391.604938" stroke="rgb(255,255,255)" stroke-width="1" />
<line x1="1322.766687" y1="391.604938" x2="1317.420851" y2="388.518519" stroke="rgb(0,0,0)" stroke-width="1" />
<line x1="1320.984741" y1="388.518519" x2="1319.202796" y2="389.547325" stroke="rgb(0,0,0)" stroke-width="1" />
<line x1="1319.202796" y1="389.547325" x2="1320.984741" y2="390.576132" stroke="rgb(255,255,255)" stroke-width="1" />
<line x1="1320.984741" y1="390.576132" x2="1320.984741" y2="388.518519" stroke="rgb(0,0,0)" stroke-width="1" />
<line x1="1315.638906" y1="391.604938" x2="1317.420851" y2="392.633745" stroke="rgb(0,0,0)" stroke-width="1" />
<line x1="1317.420851" y1="392.633745" x2="1317.420851" y2="390.576132" stroke="rgb(255,255,255)" stroke-width="1" />
<line x1="1317.420851" y1="390.576132" x2="1315.638906" y2="391.604938" stroke="rgb(0,0,0)" stroke-width="1" />
<line x1="1317.420851" y1="407.037037" x2="1322.766687" y2="403.950617" stroke="rgb(0,0,0)" stroke-width="1" />
<line x1="1322.766687" y1="403.950617" x2="1317.420851" y2="400.864198" stroke="rgb(255,255,255)" stroke-width="1" />
<line x1="1317.420851" y1="400.864198" x2="1317.420851" y2="407.037037" stroke="rgb(0,0,0)" stroke-width="1" />
<line x1="1315.638906" y1="403.950617" x2="1317.420851" y2="404.979424" stroke="rgb(0,0,0)" stroke-width="1" />
<line x1="1317.420851" y1="404.979424" x2="1317.420851" y2="402.921811" stroke="rgb(255,255,255)" stroke-width="1" />
<line x1="1317.420851" y1="402.921811" x2="1315.638906" y2="403.950617" stroke="rgb(0,0,0)" stroke-width="1" />
<line x1="1320.984741" y1="407.037037" x2="1320.984741" y2="404.979424" stroke="rgb(0,0,0)" stroke-width="1" />
<line x1="1320.984741" y1="404.979424" x2="1319.202796" y2="406.008230" stroke="rgb(255,255,255)" stroke-width="1" />
<line x1="1319.202796" y1="406.008230" x2="1320.984741" y2="407.037037" stroke="rgb(0,0,0)" stroke-width="1" />
<line x1="991.324865" y1="620.000000" x2="1135.662433" y2="703.333333" stroke="rgb(0,0,0)" stroke-width="1" />
<line x1="1135.662433" y1="703.333333" x2="1135.662433" y2="536.666667" stroke="rgb(255,255,255)" stroke-width="1" />
<line x1="1135.662433" y1="536.666667" x2="991.324865" y2="620.000000" stroke="rgb(0,0,0)" stroke-width="1" />
<line x1="1039.437388" y1="536.666667" x2="1039.437388" y2="592.222222" stroke="rgb(0,0,0)" stroke-width="1" />
<line x1="1039.437388" y1="592.222222" x2="1087.549910" y2="564.444444" stroke="rgb(255,255,255)" stroke-width="1" />
<line x1="1087.549910" y1="564.444444" x2="1039.437388" y2="536.666667" stroke="rgb(0,0,0)" stroke-width="1" />
<line x1="1071.512403" y1="536.666667" x2="1055.474895" y2="545.925926" stroke="rgb(0,0,0)" stroke-width="1" />
<line x1="1055.474895" y1="545.925926" x2="1071.512403" y2="555.185185" stroke="rgb(255,255,255)" stroke-width="1" />
<line x1="1071.512403" y1="555.185185" x2="1071.512403" y2="536.666667" stroke="rgb(0,0,0)" stroke-width="1" />
<line x1="1076.858239" y1="545.925926" x2="1071.512403" y2="542.839506" stroke="rgb(0,0,0)" stroke-width="1" />
<line x1="1071.512403" y1="542.839506" x2="1071.512403" y2="549.012346" stroke="rgb(255,255,255)" stroke-width="1" />
<line x1="1071.512403" y1="549.012346" x2="1076.858239" y2="545.925926" stroke="rgb(0,0,0)" stroke-width="1" />
<line x1="1075.076293" y1="549.012346" x2="1075.076293" y2="546.954733" stroke="rgb(0,0,0)" stroke-width="1" />
<line x1="1075.076293" y1="546.954733" x2="1073.294348" y2="547.983539" stroke="rgb(255,255,255)" stroke-width="1" />
<line x1="1073.294348" y1="547.983539" x2="1075.076293" y2="549.012346" stroke="rgb(0,0,0)" stroke-width="1" />
<line x1="1075.076293" y1="542.839506" x2="1073.294348" y2="543.868313" stroke="rgb(0,0,0)" stroke-width="1" />
<line x1="1073.294348" y1="543.868313" x2="1075.076293" y2="544.897119" stroke="rgb(255,255,255)" stroke-width="1" />
<line x1="1075.076293" y1="544.897119" x2="1075.076293" y2="542.839506" stroke="rgb(0,0,0)" stroke-width="1" />
<line x1="1060.820731" y1="536.666667" x2="1060.820731" y2="542.839506" stroke="rgb(0,0,0)" stroke-width="1" />
<line x1="1060.820731" y1="542.839506" x2="1066.166567" y2="539.753086" stroke="rgb(255,255,255)" stroke-width="1" />
<line x1="1066.166567" y1="539.753086" x2="1060.820731" y2="536.666667" stroke="rgb(0,0,0)" stroke-width="1" />
<line x1="1064.384622" y1="536.666667" x2="1062.602676" y2="537.695473" stroke="rgb(0,0,0)" stroke-width="1" />
<line x1="1062.602676" y1="537.695473" x2="1064.384622" y2="538.724280" stroke="rgb(255,255,255)" stroke-width="1" />
<line x1="1064.384622" y1="538.724280" x2="1064.384622" y2="536.666667" stroke="rgb(0,0,0)" stroke-width="1" />
<line x1="1059.038786" y1="539.753086" x2="1060.820731" y2="540.781893" stroke="rgb(0,0,0)" stroke-width="1" />
<line x1="1060.820731" y1="540.781893" x2="1060.820731" y2="538.724280" stroke="rgb(255,255,255)" stroke-width="1" />
<line x1="1060.820731" y1="538.724280" x2="1059.038786" y2="539.753086" stroke="rgb(0,0,0)" stroke-width="1" />
<line x1="1023.399880" y1="564.444444" x2="1039.437388" y2="573.703704" stroke="rgb(0,0,0)" stroke-width="1" />
<line x1="1039.437388" y1="573.703704" x2="1039.437388" y2="555.185185" stroke="rgb(255,255,255)" stroke-width="1" />
<line x1="1039.437388" y1="555.185185" x2="1023.399880" y2="564.444444" stroke="rgb(0,0,0)" stroke-width="1" />
<line x1="1028.745716" y1="555.185185" x2="1028.745716" y2="561.358025" stroke="rgb(0,0,0)" stroke-width="1" />
<line x1="1028.745716" y1="561.358025" x2="1034.091552" y2="558.271605" stroke="rgb(255,255,255)" stroke-width="1" />
<line x1="1034.091552" y1="558.271605" x2="1028.745716" y2="555.185185" stroke="rgb(0,0,0)" stroke-width="1" />
<line x1="1032.309607" y1="555.185185" x2="1030.527661" y2="556.213992" stroke="rgb(0,0,0)" stroke-width="1" />
<line x1="1030.527661" y1="556.213992" x2="1032.309607" y2="557.242798" stroke="rgb(255,255,255)" stroke-width="1" />
<line x1="1032.309607" y1="557.242798" x2="1032.309607" y2="555.185185" stroke="rgb(0,0,0)" stroke-width="1" />
<line x1="1026.963771" y1="558.271605" x2="1028.745716" y2="559.300412" stroke="rgb(0,0,0)" stroke-width="1" />
<line x1="1028.745716" y1="559.300412" x2="1028.745716" y2="557.242798" stroke="rgb(255,255,255)" stroke-width="1" />
<line x1="1028.745716" y1="557.242798" x2="1026.963771" y2="558.271605" stroke="rgb(0,0,0)" stroke-width="1" />
<line x1="1028.745716" y1="573.703704" x2="1034.091552" y2="570.617284" stroke="rgb(0,0,0)" stroke-width="1" />
<line x1="1034.091552" y1="570.617284" x2="1028.745716" y2="567.530864" stroke="rgb(255,255,255)" stroke-width="1" />
<line x1="1028.745716" y1="567.530864" x2="1028.745716" y2="573.703704" stroke="rgb(0,0,0)" stroke-width="1" />
<line x1="1026.963771" y1="570.617284" x2="1028.745716" y2="571.646091" stroke="rgb(0,0,0)" stroke-width="1" />
<line x1="1028.745716" y1="571.646091" x2="1028.745716" y2="569.588477" stroke="rgb(255,255,255)" stroke-width="1" />
<line x1="1028.745716" y1="569.588477" x2="1026.963771" y2="570.617284" stroke="rgb(0,0,0)" stroke-width="1" />
<line x1="1032.309607" y1="573.703704" x2="1032.309607" y2="571.646091" stroke="rgb(0,0,0)" stroke-width="1" />
<line x1="1032.309607" y1="571.646091" x2="1030.527661" y2="572.674897" stroke="rgb(255,255,255)" stroke-width="1" />
<line x1="1030.527661" y1="572.674897" x2="1032.309607" y2="573.703704" stroke="rgb(0,0,0)" stroke-width="1" />
<line x1="1039.437388" y1="703.333333" x2="1087.549910" y2="675.555556" stroke="rgb(0,0,0)" stroke-width="1" />
<line x1="1087.549910" y1="675.555556" x2="1039.437388" y2="647.777778" stroke="rgb(255,255,255)" stroke-width="1" />
<line x1="1039.437388" y1="647.777778" x2="1039.437388" y2="703.333333" stroke="rgb(0,0,0)" stroke-width="1" />
<line x1="1023.399880" y1="675.555556" x2="1039.437388" y2="684.814815" stroke="rgb(0,0,0)" stroke-width="1" />
<line x1="1039.437388" y1="684.814815" x2="1039.437388" y2="666.296296" stroke="rgb(255,255,255)" stroke-width="1" />
<line x1="1039.437388" y1="666.296296" x2="1023.399880" y2="675.555556" stroke="rgb(0,0,0)" stroke-width="1" />
<line x1="1028.745716" y1="666.296296" x2="1028.745716" y2="672.469136" stroke="rgb(0,0,0)" stroke-width="1" />
<line x1="1028.745716" y1="672.469136" x2="1034.091552" y2="669.382716" stroke="rgb(255,255,255)" stroke-width="1" />
<line x1="1034.091552" y1="669.382716" x2="1028.745716" y2="666.296296" stroke="rgb(0,0,0)" stroke-width="1" />
<line x1="1032.309607" y1="666.296296" x2="1030.527661" y2="667.325103" stroke="rgb(0,0,0)" stroke-width="1" />
<line x1="1030.527661" y1="667.325103" x2="1032.309607" y2="668.353909" stroke="rgb(255,255,255)" stroke-width="1" />
<line x1="1032.309607" y1="668.353909" x2="1032.309607" y2="666.296296" stroke="rgb(0,0,0)" stroke-width="1" />
<line x1="1026.963771" y1="669.382716" x2="1028.745716" y2="670.411523" stroke="rgb(0,0,0)" stroke-width="1" />
<line x1="1028.745716" y1="670.411523" x2="1028.745716" y2="668.353909" stroke="rgb(255,255,255)" stroke-width="1" />
<line x1="1028.745716" y1="668.353909" x2="1026.963771" y2="669.382716" stroke="rgb(0,0,0)" stroke-width="1" />
<line x1="1028.745716" y1="684.814815" x2="1034.091552" y2="681.728395" stroke="rgb(0,0,0)" stroke-width="1" />
<line x1="1034.091552" y1="681.728395" x2="1028.745716" y2="678.641975" stroke="rgb(255,255,255)" stroke-width="1" />
<line x1="1028.745716" y1="678.641975" x2="1028.745716" y2="684.814815" stroke="rgb(0,0,0)" stroke-width="1" />
<line x1="1026.963771" y1="681.728395" x2="1028.745716" y2="682.757202" stroke="rgb(0,0,0)" stroke-width="1" />
<line x1="1028.745716" y1="682.757202" x2="1028.745716" y2="680.699588" stroke="rgb(255,255,255)" stroke-width="1" />
<line x1="1028.745716" y1="680.699588" x2="1026.963771" y2="681.728395" stroke="rgb(0,0,0)" stroke-width="1" />
<line x1="1032.309607" y1="684.814815" x2="1032.309607" y2="682.757202" stroke="rgb(0,0,0)" stroke-width="1" />
<line x1="1032.309607" y1="682.757202" x2="1030.527661" y2="683.786008" stroke="rgb(255,255,255)" stroke-width="1" />
<line x1="1030.527661" y1="683.786008" x2="1032.309607" y2="684.814815" stroke="rgb(0,0,0)" stroke-width="1" />
<line x1="1071.512403" y1="703.333333" x2="1071.512403" y2="684.814815" stroke="rgb(0,0,0)" stroke-width="1" />
<line x1="1071.512403" y1="684.814815" x2="1055.474895" y2="694.074074" stroke="rgb(255,255,255)" stroke-width="1" />
<line x1="1055.474895" y1="694.074074" x2="1071.512403" y2="703.333333" stroke="rgb(0,0,0)" stroke-width="1" />
<line x1="1060.820731" y1="703.333333" x2="1066.166567" y2="700.246914" stroke="rgb(0,0,0)" stroke-width="1" />
<line x1="1066.166567" y1="700.246914" x2="1060.820731" y2="697.160494" stroke="rgb(255,255,255)" stroke-width="1" />
<line x1="1060.820731" y1="697.160494" x2="1060.820731" y2="703.333333" stroke="rgb(0,0,0)" stroke-width="1" />
<line x1="1059.038786" y1="700.246914" x2="1060.820731" y2="701.275720" stroke="rgb(0,0,0)" stroke-width="1" />
<line x1="1060.820731" y1="701.275720" x2="1060.820731" y2="699.218107" stroke="rgb(255,255,255)" stroke-width="1" />
<line x1="1060.820731" y1="699.218107" x2="1059.038786" y2="700.246914" stroke="rgb(0,0,0)" stroke-width="1" />
<line x1="1064.384622" y1="703.333333" x2="1064.384622" y2="701.275720" stroke="rgb(0,0,0)" stroke-width="1" />
<line x1="1064.384622" y1="701.275720" x2="1062.602676" y2="702.304527" stroke="rgb(255,255,255)" stroke-width="1" />
<line x1="1062.602676" y1="702.304527" x2="1064.384622" y2="703.333333" stroke="rgb(0,0,0)" stroke-width="1" />
<line x1="1076.858239" y1="694.074074" x2="1071.512403" y2="690.987654" stroke="rgb(0,0,0)" stroke-width="1" />
<line x1="1071.512403" y1="690.987654" x2="1071.512403" y2="697.160494" stroke="rgb(255,255,255)" stroke-width="1" />
<line x1="1071.512403" y1="697.160494" x2="1076.858239" y2="694.074074" stroke="rgb(0,0,0)" stroke-width="1" />
<line x1="1075.076293" y1="697.160494" x2="1075.076293" y2="695.102881" stroke="rgb(0,0,0)" stroke-width="1" />
<line x1="1075.076293" y1="695.102881" x2="1073.294348" y2="696.131687" stroke="rgb(255,255,255)" stroke-width="1" />
<line x1="1073.294348" y1="696.131687" x2="1075.076293" y2="697.160494" stroke="rgb(0,0,0)" stroke-width="1" />
<line x1="1075.076293" y1="690.987654" x2="1073.294348" y2="692.016461" stroke="rgb(0,0,0)" stroke-width="1" />
<line x1="1073.294348" y1="692.016461" x2="1075.076293" y2="693.045267" stroke="rgb(255,255,255)" stroke-width="1" />
<line x1="1075.076293" y1="693.045267" x2="1075.076293" y2="690.987654" stroke="rgb(0,0,0)" stroke-width="1" />
</svg>